PathFileType	4	(X/Y/Z)	C:/Users/beibeiliu/ov580/test_trc\sequence.37_training_dense_right.trc
DataRate	CameraRate	NumFrames	NumMarkers	Units	OrigDataRate	OrigDataStartFrame	OrigNumFrames
120	120	20	19	mm	120	236	269
Frame#	Time	ThumbCMC			ThumbMCP			ThumbIP			ThumbTip			IndexMCP			IndexPIP			IndexTip			MiddleMCP			MiddlePIP			MiddleTip			RingMCP			RingPIP			RingTip			PinkyMCP			PinkyPIP			PinkyTip			BackHand1			BackHand2			BackHand3	
		X0	Y0	Z0	X1	Y1	Z1	X2	Y2	Z2	X3	Y3	Z3	X4	Y4	Z4	X5	Y5	Z5	X6	Y6	Z6	X7	Y7	Z7	X8	Y8	Z8	X9	Y9	Z9	X10	Y10	Z10	X11	Y11	Z11	X12	Y12	Z12	X13	Y13	Z13	X14	Y14	Z14	X15	Y15	Z15	X16	Y16	Z16	X17	Y17	Z17	X18	Y18	Z18	
235	1.95833	125.778	-13.309	52.6499	110.091	-21.2206	33.5937	99.6229	-22.4301	9.72848	89.8816	-25.8406	-4.41209	130.818	-8.71025	-13.1611	126.857	-14.7168	-36.7379	128.628	-23.8283	-54.0051	153.965	-12.0926	-18.0697	153.09	-18.2497	-42.9821	154.33	-24.4133	-63.61	173.3	-19.3322	-8.28828	176.818	-23.0113	-29.8525	176.669	-26.2343	-51.3272	188.289	-26.8522	4.24444	198.398	-31.7662	-14.4983	202.916	-30.8046	-26.7099	171.802	-5.44616	33.7301	174.445	-2.51343	57.1151	150.215	3.66916	42.7741	
236	1.96667	126.694	-14.0456	54.2713	111.475	-22.8421	36.2117	104.259	-23.9533	10.8024	94.8101	-26.8086	-7.26418	135.507	-9.66307	-12.0721	128.114	-15.901	-34.2586	124.711	-24.8616	-57.092	156.098	-13.3717	-17.0668	153.515	-18.1944	-39.1873	157.655	-26.6071	-67.0405	175.824	-20.4021	-11.1576	178.275	-23.6081	-29.7376	176.341	-26.9694	-49.7073	190.845	-26.9013	0.916737	195.02	-31.098	-13.8603	203.429	-28.8112	-31.4367	178.242	-9.48305	33.0125	175.946	-4.96788	61.0089	152.073	1.12283	42.8457	
237	1.975	127.54	-14.3614	54.3974	110.666	-22.4891	34.4759	104.928	-24.1897	12.1233	97.2814	-28.084	-5.29382	137.682	-9.89514	-10.6595	135.057	-17.216	-32.175	131.484	-26.1765	-58.3976	158.692	-14.1829	-19.5391	157.801	-20.5549	-41.9296	159.092	-27.3769	-66.8199	176.825	-20.7267	-12.6724	176.581	-24.6692	-29.6974	180.022	-28.259	-49.5622	193.389	-28.2951	3.09057	201.266	-32.0941	-13.0696	204.709	-31.4056	-29.8412	176.285	-6.76923	32.6536	176.356	-3.40241	58.7756	153.535	2.58996	45.5868	
238	1.98333	130.457	-16.6744	58.053	115.855	-24.3102	34.219	103.86	-25.8645	12.9094	97.0547	-29.7857	-3.317	140.228	-11.9811	-11.6612	132.217	-17.474	-31.762	131.418	-26.9498	-54.6486	160.658	-15.3502	-17.4824	161.844	-23.4341	-43.4026	161.439	-28.1747	-63.4031	177.767	-21.1565	-10.3294	180.599	-25.9482	-29.5022	181.905	-29.8152	-54.3653	197.253	-30.3594	3.88644	198.724	-32.3561	-11.1845	206.11	-29.4662	-28.4714	177.685	-7.68467	35.315	180.934	-7.19285	60.9949	153.935	1.37119	44.2603	
239	1.99167	129.103	-17.7849	53.6046	117.861	-25.7135	35.0183	106.974	-28.7088	13.7275	99.3991	-31.0047	-7.65493	137.207	-12.192	-10.4659	135.662	-19.3089	-31.8996	132.913	-28.0885	-55.0065	162.226	-17.0114	-17.0415	164.247	-23.035	-39.0714	160.712	-29.0463	-64.9624	181.208	-22.8995	-12.2723	182.504	-27.4201	-32.2227	184.432	-30.4365	-53.7469	197.911	-31.0279	7.06155	199.363	-33.6064	-10.5354	211.338	-32.0634	-28.3159	177.666	-11.3234	31.9417	178.356	-6.95462	58.2328	155.806	-1.42848	46.8373	
240	2	134.527	-19.4394	54.1552	114.758	-26.3467	32.3698	109.259	-29.7429	13.1354	99.2232	-33.6897	-3.82735	142.788	-14.3174	-14.419	139.848	-21.7067	-37.0803	134.957	-29.8393	-54.3201	165.003	-18.9102	-19.2708	163.236	-24.1564	-39.4486	161.807	-30.8091	-67.6968	181.461	-24.5009	-10.5373	182.529	-28.3819	-33.0413	183.174	-30.4407	-49.6361	201.491	-31.5648	2.93053	201.508	-33.7662	-11.1157	209.458	-34.3034	-27.325	182.782	-12.2369	35.4653	184.026	-7.15239	62.0837	157.891	-1.0369	43.8479	
241	2.00833	134.265	-18.9641	52.6195	116.031	-27.3183	29.964	110.981	-29.7815	9.34046	103.772	-33.6737	-9.70219	142.626	-15.4523	-13.2718	140.445	-21.454	-34.2032	135.311	-30.963	-55.3238	164.58	-19.4522	-18.8773	163.085	-24.571	-41.1661	168.734	-32.6277	-63.9057	182.85	-24.8508	-11.1422	185.303	-29.4658	-33.6105	188.808	-33.394	-50.516	200.173	-32.2977	4.93313	203.818	-35.6101	-11.8025	213.847	-35.2534	-30.6822	182.364	-11.1693	34.365	181.079	-8.79968	59.7289	158.371	-2.31093	41.6712	
242	2.01667	134.464	-19.9248	50.8927	120.628	-28.4473	30.358	109.138	-31.8365	9.53434	104.96	-35.8727	-5.83706	141.027	-15.1507	-11.4732	140.561	-22.9312	-35.0026	140.089	-32.582	-56.4529	166.754	-21.5209	-18.3542	163.707	-27.0825	-44.203	169.739	-34.0523	-64.1012	184.176	-27.2326	-9.19793	185.075	-30.6684	-33.2261	190.818	-35.6891	-55.1181	201.108	-33.9674	6.29464	207.381	-37.2837	-13.9594	213.933	-35.0368	-31.6577	180.775	-14.5633	30.9926	183.527	-9.62904	59.5744	158.115	-4.07769	45.5181	
243	2.025	133.375	-22.1312	55.1373	118.989	-30.6109	32.1053	111.709	-33.1367	9.22734	101.701	-36.7287	-6.18578	144.139	-18.291	-17.4295	140.531	-24.9939	-35.9956	139.591	-33.4	-56.859	167.719	-23.1628	-16.9722	168.103	-28.483	-40.8773	169.927	-35.939	-65.7476	183.135	-28.8462	-11.7498	184.395	-33.1766	-32.2594	188.124	-36.8197	-51.331	198.7	-35.3467	3.98767	205.369	-38.5428	-14.3984	211.638	-39.4903	-27.996	185.602	-16.0476	29.9596	183.334	-11.8699	57.5013	157.541	-4.77724	43.1364	
244	2.03333	134.847	-23.8557	54.9567	121.719	-32.1388	29.8202	111.667	-34.9967	6.567	101.798	-38.3752	-6.93862	146.507	-20.3083	-16.0069	142.937	-26.733	-38.2069	140.432	-36.92	-60.422	165.91	-23.0307	-18.3514	169.439	-31.0962	-42.2524	170.184	-38.6227	-68.0463	186.822	-29.6097	-12.1739	190.032	-35.035	-30.7979	190.532	-38.6756	-55.4132	202.519	-36.9197	4.20542	205.903	-40.2138	-13.5627	216.374	-40.9419	-31.4682	183.217	-14.2788	32.4614	184.207	-12.7174	57.7276	157.804	-6.20936	38.8786	
245	2.04167	135.69	-24.4282	53.9774	121.82	-32.7042	29.1273	113.933	-35.8479	10.5461	105.169	-40.4423	-7.14752	146.543	-21.422	-14.1909	141.115	-27.6774	-35.6092	142.569	-40.0268	-60.5719	170.257	-25.2706	-20.9736	169.75	-32.1801	-41.8763	170.773	-38.3497	-65.3414	189.629	-32.1429	-11.3842	188.82	-36.6505	-33.7338	192.835	-41.7782	-50.9606	205.528	-39.915	1.07608	207.021	-43.0036	-13.3997	214.527	-42.5367	-30.9571	184.976	-18.1791	28.4088	184.369	-13.1312	58.098	158.395	-8.44704	41.7193	
246	2.05	134.526	-24.4892	51.7151	121.08	-33.3535	28.8936	115.193	-37.7949	9.74988	106.654	-41.3578	-9.47182	147.272	-23.6024	-14.8693	142.463	-30.3297	-39.5085	141.725	-39.2147	-57.9636	170.595	-27.4043	-22.4237	172.075	-34.3785	-43.8245	169.718	-42.3357	-68.9795	185.054	-32.1623	-12.1811	191.855	-38.3714	-33.7212	194.58	-44.1274	-52.3928	203.431	-40.789	2.96258	207.299	-43.6235	-10.5926	217.305	-43.8375	-32.3033	188.783	-19.0951	29.9193	186.816	-14.6584	57.4514	158.68	-9.0756	41.8976	
247	2.05833	134.078	-25.4979	52.2743	120.401	-34.0282	29.6041	113.294	-38.4981	9.37142	103.584	-41.8663	-6.69067	144.98	-23.828	-14.6506	143.14	-32.482	-39.0816	139.434	-42.3736	-60.7324	168.143	-28.7873	-20.6297	169.445	-35.788	-44.0372	169.597	-43.1373	-66.7565	189.544	-34.7923	-14.5769	193.487	-41.3582	-32.5765	194.418	-45.8761	-53.7791	207.19	-42.5797	2.37517	208.734	-45.4188	-13.1249	219.129	-48.2171	-28.3802	187.844	-21.9425	34.0348	183.639	-16.0612	56.6817	159.802	-9.17481	39.4987	
248	2.06667	136.739	-27.5489	52.8232	122.062	-35.3236	32.3811	114.415	-38.4876	8.36175	104.262	-43.1707	-7.20319	146.343	-25.3597	-15.5445	146.658	-32.6225	-36.5207	143.889	-41.8681	-57.9246	172.194	-31.0566	-22.5232	169.606	-36.5921	-43.6215	171.938	-44.3458	-66.7983	187.682	-35.8725	-11.1353	190.206	-40.2862	-30.5739	194.283	-46.7937	-54.3932	206.188	-43.3838	4.48812	210.295	-47.778	-11.8601	222.185	-48.9221	-29.7561	187.895	-21.3739	33.2499	189.788	-16.1074	58.3848	162.793	-12.6445	40.4812	
249	2.075	139.939	-28.0625	54.0436	123.743	-35.5756	28.2542	117.014	-39.5674	9.73906	106.128	-43.8901	-9.80073	149.306	-25.9493	-17.2132	145.298	-32.4077	-37.561	145.224	-41.8653	-57.4742	173.424	-30.9894	-22.7344	170.959	-35.8006	-41.9179	175.578	-44.6947	-68.0676	189.587	-36.0402	-14.1355	193.697	-41.5105	-32.6571	195.915	-46.4342	-53.5561	204.671	-43.4376	2.34246	214.478	-49.309	-9.00909	221.476	-49.566	-30.4511	185.973	-21.274	32.5299	187.402	-17.2015	60.1421	166.386	-11.7913	42.2731	
250	2.08333	137.88	-27.4615	49.4863	122.043	-36.6801	31.2766	113.996	-39.2479	8.44155	109.015	-43.714	-8.00952	147.028	-25.7988	-18.1163	148.892	-32.3734	-35.8321	143.785	-41.2868	-56.4034	172.496	-31.1787	-19.1293	174.814	-37.347	-42.8968	176.2	-45.0416	-66.55	192.761	-37.8535	-8.44147	196.095	-42.5238	-30.4212	198.318	-46.8896	-53.6761	207.167	-44.9614	4.44306	215.262	-48.4137	-11.9151	222.599	-49.5573	-27.8941	187.117	-21.6273	34.7688	186.367	-18.2812	57.1309	162.614	-12.3016	39.1244	
251	2.09167	137.139	-26.5634	51.4408	126.286	-36.6	32.1427	117.435	-39.6894	11.4224	108.316	-41.8278	-9.57515	147.882	-24.6624	-12.6745	144.607	-32.2653	-38.0566	145.788	-44.0371	-60.7832	170.742	-29.7	-18.5557	173.71	-37.7429	-43.2988	174.375	-43.4154	-65.6307	190.544	-37.2098	-10.6284	197.186	-42.9098	-30.426	196.786	-47.3958	-52.7174	209.39	-45.1681	4.99337	214.117	-49.1957	-12.1959	222.757	-46.9765	-27.9991	188.24	-21.1757	31.7099	190.788	-20.0489	56.8804	164.439	-12.9815	39.8834	
252	2.1	138.214	-27.9391	51.8928	124.375	-34.6809	28.8427	117.015	-38.8316	9.39745	111.561	-43.1498	-6.21224	153.701	-25.0894	-13.4806	148.655	-32.7533	-37.8821	143.717	-42.4441	-60.5165	172.885	-30.5574	-19.0473	176.292	-36.99	-40.023	175.424	-45.549	-68.0043	190.963	-37.7636	-10.0955	196.741	-42.5109	-30.3753	197.492	-46.9296	-52.5698	205.602	-44.1432	3.26073	215.694	-49.5861	-9.61652	225.08	-49.1064	-24.6595	191.686	-22.0808	33.8744	192.207	-19.4124	58.85	167.384	-12.5991	41.6804	
253	2.10833	138.952	-27.0029	50.3863	127.066	-36.1246	33.2955	115.949	-37.6485	7.38259	107.328	-40.6478	-7.33452	149.685	-24.0034	-13.6628	147.176	-31.3693	-36.598	143.725	-39.8774	-55.8077	171.116	-29.8354	-18.4615	175.995	-36.9498	-43.4225	175.077	-43.1212	-67.4581	193.413	-37.5865	-10.7347	194.655	-42.6215	-29.5553	196.623	-46.436	-51.8753	208.826	-45.6961	5.71802	213.702	-48.2451	-8.52328	224.542	-47.8875	-24.3791	191	-24.3539	32.9996	188.931	-16.8773	58.9382	167.902	-12.0038	43.0222	
254	2.11667	141.566	-29.1047	53.6848	128.445	-37.1285	31.6052	119.965	-38.5036	10.2993	113.828	-41.6987	-9.04688	152.977	-25.307	-16.5441	150.531	-32.4159	-34.7491	143.037	-41.9778	-60.3231	171.837	-29.631	-17.4617	174.445	-36.1745	-42.4333	176.548	-44.5199	-68.2687	192.639	-37.2551	-10.689	194.755	-41.271	-31.9062	196.942	-46.8102	-53.42	211.212	-45.4447	5.83212	213.307	-48.1237	-13.9323	221.574	-49.5323	-26.4336	193.523	-23.6951	36.1391	188.472	-17.5077	57.0188	165.676	-12.5136	44.4777	
